<svg preserveAspectRatio="xMidYMid meet" data-bbox="28 16 144.013 168" viewBox="28 16 144.013 168" height="200" width="200" xmlns="http://www.w3.org/2000/svg" data-type="color" role="presentation" aria-hidden="true" aria-label=""><defs><style>#comp-lwqqclb9 svg [data-color="1"] {fill: #000000;}</style></defs>
    <g>
        <path d="M171.2 120.3c-1.2-1.2-3.1-1.2-4.3 0l-11.2 11.2-9.2-9.2c14.4-16 18.1-37.9 11.4-57.3-2.8-7.8-7.1-15.2-13.3-21.5-10.2-10.2-23.5-16.1-37.8-16.7-6-.6-13.7 1.2-13.7 1.2-10.1 1.9-19.5 6.5-27.2 13.5l-9.2-9.2 11.2-11.2c1.2-1.2 1.2-3.1 0-4.2-1.2-1.2-3.1-1.2-4.3 0L50.2 30.1c-29.6 29.7-29.6 78 0 107.7 14.3 14.3 32.8 21.6 51.5 22.2-1.1 5.6-5 18-18.1 18h-3.7c-1.7 0-4.3 1.3-4.3 3s2.6 3 4.3 3H130c1.7 0 3-1.3 3-3s-1.3-3-3-3H99c5.4-5.2 7.9-12.5 8.8-18.1 18.2-1 36.1-8.2 50-22.1l13.3-13.3c1.2-1.2 1.2-3.2.1-4.2zm-21-58.4h-6.4L135 51.6c-.4-.5-.8-.8-1.4-1-14.9-4.2-16.7-3-17.8-2.4-.8.6-2.3 1.3-3.2 1.9l-9.8-4.6-4-4.1 4.1-8.8c.4 0 .7-.1 1-.1 13.7 0 26.6 5.3 36.2 15 4.5 4.5 7.6 9.3 10.1 14.4zM67.8 47.6c7.8-7.8 17.6-12.6 28.3-14.3l-3.5 7.4c-.5 1.1-.2 2.4.6 3.4l5.8 6c.2.2.6.5.8.6l11.6 5.5c.8.4 1.9.4 2.6 0 0 0 2.9-1.6 4.7-2.6 1.8 0 7.4 1.3 12.4 2.6l9 10.7c.6.7 1.4 1.1 2.3 1.1h10.1c5.9 17.8 1.9 38.2-12.2 52.3-9.7 9.7-22.6 15-36.2 15-13.7 0-26.5-5.4-36.2-15-6-6.1-10.1-13.3-12.5-21l5.3-1.7 7 5c.5.4 1.2.6 1.8.6.8 0 1.7-.4 2.3-1.1L82 90c.8-.8 1-2.2.5-3.2-.5-1.1-1.6-1.8-2.7-1.8h-7.3l-3.8-2.6-.2-5 4.9-3.4c.8-.6 1.1-1.8 1.1-2.8V53.3c0-1.7-1.1-2.6-2.8-2.6h-6.1c.6-1 1.3-2.1 2.2-3.1zm-5.2 36.5c0 1 .5 1.8 1.3 2.4l5.9 4.1c.5.4 1.1.5 1.7.5h1.7l-4.3 5.2-6-4.3c-.7-.6-1.8-.7-2.6-.5l-6.6 2c-2.3-12.5 0-25.7 7.1-36.9h7.8V70l-4.9 3.5c-.8.6-1.3 1.6-1.3 2.6l.2 8zm-8.1 49.5C28 107.1 27.4 64.3 52.6 36.8l9 9c-1.7 1.8-3.2 3.7-4.7 5.6 0 0-.1.1-.1.2-15.2 22.3-13.1 53.1 6.7 72.9 10.8 10.8 25.2 16.8 40.6 16.8 14.3 0 27.7-5.4 38.2-14.9l9 9c-27.5 25.2-70.2 24.7-96.8-1.8z" fill="#343f64" data-color="1"></path>
        <path d="M74.2 109.6v10.3c0 1.3 1 2.6 2.3 2.9l15.6 3.5h25.2c.6 0 1.2-.2 1.7-.5l7.2-6c.8-.6 1.3-1.6 1.3-2.5v-10.4c0-.7-.2-1.3-.6-1.8l-9.5-12.2c-.7-1-1.9-1.3-3-1.1s-2 1.1-2.3 2.3c-.5 1.9-1.1 4.2-1.7 6-1.9-1.4-4.7-3.5-9-6.1l-11.2-7c-.7-.5-1.8-.6-2.6-.2s-1.6 1.1-1.8 1.9l-2.6 8.8-8.3 10.4c-.4.4-.7 1-.7 1.7zm6.1 1.1l8-10.1c.2-.4.5-.7.6-1.1l1.7-5.6 7.7 4.9c4.4 2.9 9.8 6.6 10.4 7.1.4 1.2 1.7 2.3 3 2.3 2 0 3-.7 4.7-6.7l5.2 6.7v7.8l-7.4 4.7-21.4.1-12.4-3.1v-7h-.1z" fill="#343f64" data-color="1"></path>
        <path d="M131.9 89.2c.5.4 1.2.6 1.8.6.2 0 .6 0 .8-.1l11.2-3.2c1.3-.4 1.8-1.6 1.8-2.9v-8.2c0-1.7-1-3-2.6-3h-11.2c-1.7 0-3 1.3-3 3v11.4c-.1.9.4 1.8 1.2 2.4zm4.9-10.8h5.2v2.9l-5.2 1.4v-4.3z" fill="#343f64" data-color="1"></path>
    </g>
</svg>