<svg preserveAspectRatio="xMidYMid meet" data-bbox="28 22 144.001 156" xmlns="http://www.w3.org/2000/svg" width="200" height="200" viewBox="28 22 144.001 156" data-type="color" role="presentation" aria-hidden="true" aria-label=""><defs><style>#comp-lwqwdcxe9 svg [data-color="1"] {fill: #000000;}</style></defs>
    <g>
        <path fill="#FF3644" d="M168.853 112.502a2.86 2.86 0 0 0 .175-.984c1.929-3.444 2.973-7.267 2.973-11.229 0-6.442-2.656-12.498-7.356-16.922a22.945 22.945 0 0 0 1.157-7.22c0-8.387-4.458-15.967-11.755-20.197-.485-8.901-6.405-16.555-14.939-19.486a3.007 3.007 0 0 0-.597-.457c-3.368-8.221-11.651-13.815-20.812-13.815-6.968 0-13.392 3.166-17.601 8.414C95.908 25.266 89.357 22 82.302 22c-9.269 0-17.648 5.721-20.937 14.101-8.791 2.805-14.917 10.59-15.411 19.657-7.297 4.23-11.755 11.81-11.755 20.197 0 2.474.388 4.894 1.157 7.22C30.656 87.598 28 93.654 28 100.096c0 4.212 1.139 8.283 3.313 11.891A22.922 22.922 0 0 0 28 123.877c0 5.796 2.131 11.277 6.03 15.58-.022.418-.031.837-.031 1.259 0 12.945 9.943 24.002 22.9 25.79 5.111 7.103 13.315 11.3 22.231 11.3 8.034 0 15.656-3.55 20.787-9.466 5.13 6.034 12.818 9.66 20.953 9.66 8.914 0 17.119-4.197 22.231-11.3 12.957-1.791 22.9-12.847 22.9-25.79 0-.422-.01-.843-.031-1.259 3.899-4.303 6.03-9.784 6.03-15.58 0-4.09-1.094-8.041-3.147-11.569zM79.13 171.91c-7.326 0-14.037-3.645-17.952-9.748a3.027 3.027 0 0 0-2.3-1.37c-10.575-.866-18.857-9.684-18.857-20.077 0-.687.035-1.366.104-2.038a2.905 2.905 0 0 0-.861-2.372c-3.38-3.328-5.242-7.74-5.242-12.429 0-2.513.581-4.947 1.626-7.205 3.124 2.961 7.948 5.522 15.4 5.522 2.266 0 4.776-.238 7.548-.772 1.633-.315 2.696-1.864 2.374-3.46-.322-1.601-1.921-2.643-3.535-2.324-8.916 1.72-15.325.111-19.04-4.771a2.97 2.97 0 0 0-1.268-.953c-2.016-2.923-3.106-6.299-3.106-9.816 0-5.368 2.464-10.379 6.762-13.749a2.906 2.906 0 0 0 .886-3.461 17.207 17.207 0 0 1-1.449-6.931c0-6.63 3.737-12.571 9.757-15.619 7.215-1.308 12.777-.427 16.516 2.662 5.828 4.812 5.711 13.635 5.707 13.825-.049 1.625 1.257 2.982 2.917 3.031l.094.001c1.619 0 2.958-1.261 3.007-2.858.016-.477.274-11.765-7.801-18.472-4.54-3.771-10.662-5.256-18.206-4.466 1.138-6.133 5.838-11.153 12.211-12.687.031-.007.057-.025.087-.033.147-.041.295-.081.438-.145 3.617-1.602 8.836 2.758 10.384 4.417a3.03 3.03 0 0 0 2.231.969c.721 0 1.443-.251 2.019-.762a2.906 2.906 0 0 0 .214-4.164c-.27-.293-5.166-5.519-11.135-6.545 2.991-4.387 8.084-7.214 13.638-7.214 6.247 0 11.932 3.513 14.688 8.968v31.483c-3.939-1.921-8.031-1.626-8.291-1.605-1.649.141-2.864 1.557-2.731 3.173s1.553 2.826 3.235 2.702c.236-.017 5.467-.338 7.787 3.427v55.049a27.38 27.38 0 0 0-16.93-6.559c-1.631-.086-3.054 1.219-3.111 2.846-.057 1.627 1.245 2.99 2.907 3.046 6.768.224 12.874 3.554 16.688 8.947a26.16 26.16 0 0 0-2.902 11.968c0 4.087.963 8.107 2.788 11.747-3.97 5.533-10.307 8.822-17.296 8.822zm81.605-35.415a2.915 2.915 0 0 0-.861 2.374c.069.672.104 1.351.104 2.04 0 10.391-8.283 19.209-18.857 20.077a3.027 3.027 0 0 0-2.3 1.37c-3.917 6.103-10.628 9.748-17.952 9.748-7.479 0-14.486-3.925-18.287-10.241a20.418 20.418 0 0 1-2.919-10.521 20.36 20.36 0 0 1 2.994-10.632c3.719-6.078 10.257-9.851 17.487-10.091 1.662-.056 2.964-1.418 2.907-3.046-.057-1.627-1.441-2.908-3.111-2.846a27.423 27.423 0 0 0-16.928 6.564V76.039c2.279-3.732 7.149-3.439 7.405-3.423 1.655.12 3.105-1.055 3.256-2.671.151-1.621-1.07-3.055-2.727-3.202-.251-.024-4.13-.32-7.934 1.546V36.908c.059-.086.124-.164.174-.257 2.854-5.282 8.414-8.564 14.511-8.564 5.541 0 10.625 2.813 13.618 7.181-5.652 1.285-10.202 6.104-10.462 6.386a2.902 2.902 0 0 0 .21 4.157 3.04 3.04 0 0 0 2.023.765c.818 0 1.635-.324 2.229-.962 1.347-1.445 5.488-4.949 8.925-4.76.37.339.825.588 1.334.711 6.269 1.509 10.912 6.394 12.141 12.463-7.346-.688-13.331.8-17.781 4.498-8.075 6.706-7.816 17.994-7.801 18.471.049 1.597 1.388 2.858 3.007 2.858l.094-.001c1.662-.05 2.968-1.41 2.917-3.037-.002-.088-.208-8.905 5.677-13.794 3.581-2.976 8.85-3.908 15.643-2.83.081.049.148.116.234.158 6.213 2.995 10.071 9.048 10.071 15.797 0 2.4-.488 4.732-1.449 6.931a2.906 2.906 0 0 0 .886 3.461c4.297 3.37 6.762 8.381 6.762 13.749 0 3.66-1.153 7.181-3.331 10.182a2.928 2.928 0 0 0-.418.822c-3.83 3.665-9.748 4.763-17.657 3.244-1.621-.321-3.213.724-3.535 2.324-.322 1.597.741 3.146 2.374 3.46 2.774.534 5.281.772 7.55.772 6.084 0 10.414-1.713 13.506-3.95.964 2.182 1.511 4.516 1.511 6.926.003 4.69-1.86 9.102-5.24 12.426z" data-color="1"></path>
        <path fill="#FF3644" d="M58.597 136.011c.335.117.678.173 1.016.173 1.235 0 2.394-.75 2.835-1.954.222-.608 5.577-14.903 18.926-12.538 1.627.278 3.203-.775 3.499-2.378.294-1.603-.792-3.136-2.429-3.426-14.619-2.579-23.184 9.567-25.666 16.354-.561 1.533.252 3.22 1.819 3.769z" data-color="1"></path>
        <path fill="#FF3644" d="M137.422 133.038c.441 1.203 1.6 1.954 2.835 1.954.337 0 .68-.056 1.016-.173 1.566-.549 2.38-2.236 1.819-3.769-2.484-6.786-11.031-18.948-25.666-16.354-1.637.29-2.723 1.823-2.429 3.426.296 1.603 1.876 2.654 3.499 2.378 13.225-2.355 18.702 11.938 18.926 12.538z" data-color="1"></path>
        <path fill="#FF3644" d="M68.91 145.481c-6.011-4.898-12.915-4.249-13.217-4.22-1.645.171-2.831 1.606-2.67 3.217.159 1.614 1.649 2.779 3.278 2.65.202-.019 4.807-.384 8.83 2.946 3.505 2.9 5.554 7.773 6.087 14.481.122 1.545 1.441 2.72 2.998 2.72.078 0 .159-.002.237-.01 1.659-.125 2.898-1.543 2.768-3.167-.667-8.403-3.464-14.666-8.311-18.617z" data-color="1"></path>
        <path fill="#FF3644" d="M145.024 140.556c-.292-.025-7.203-.677-13.215 4.222-4.846 3.95-7.644 10.214-8.31 18.616-.129 1.624 1.11 3.042 2.768 3.167.078.008.159.01.237.01 1.557 0 2.876-1.175 2.998-2.72.533-6.708 2.582-11.581 6.089-14.482 4.009-3.318 8.61-2.967 8.826-2.946 1.649.148 3.117-1.015 3.29-2.627.172-1.618-1.028-3.069-2.683-3.24z" data-color="1"></path>
        <path fill="#FF3644" d="M77.076 97.143c.083-.243.12-.488.137-.732 4.839-1.085 9.146-3.909 11.994-8.035a19.068 19.068 0 0 0 2.652-5.61c.449-1.568-.486-3.195-2.088-3.633-1.604-.442-3.262.477-3.711 2.044a13.285 13.285 0 0 1-1.845 3.899c-2.57 3.724-6.84 5.948-11.422 5.948-7.595 0-13.774-6.048-13.774-13.483 0-1.628-1.349-2.948-3.011-2.948-1.662 0-3.011 1.319-3.011 2.948 0 10.013 7.797 18.275 17.759 19.277-3.361 7.481-9.937 6.923-10.732 6.822-1.645-.218-3.154.892-3.392 2.496-.239 1.611.9 3.107 2.547 3.341.52.074 1.106.116 1.741.116 4.897-.001 12.772-2.513 16.156-12.45z" data-color="1"></path>
        <path fill="#FF3644" d="M122.964 97.143c3.384 9.938 11.259 12.449 16.156 12.449.635 0 1.221-.042 1.741-.116 1.635-.233 2.76-1.711 2.537-3.314-.223-1.604-1.729-2.718-3.378-2.525-.789.102-7.373.67-10.738-6.826 9.944-1.018 17.721-9.271 17.721-19.271 0-1.628-1.349-2.948-3.011-2.948-1.662 0-3.011 1.319-3.011 2.948 0 7.435-6.177 13.483-13.772 13.483-4.584 0-8.853-2.223-11.423-5.949a13.19 13.19 0 0 1-1.841-3.895c-.449-1.57-2.115-2.486-3.709-2.048-1.604.437-2.539 2.062-2.094 3.631.57 2 1.464 3.889 2.654 5.613 2.853 4.137 7.175 6.963 12.032 8.042.016.243.054.486.136.726z" data-color="1"></path>
    </g>
</svg>