<svg preserveAspectRatio="xMidYMid meet" data-bbox="33 39 134 122" viewBox="33 39 134 122" height="200" width="200" xmlns="http://www.w3.org/2000/svg" data-type="color" role="presentation" aria-hidden="true" aria-label=""><defs><style>#comp-lwrqj18n6__item1 svg [data-color="1"] {fill: #000000;}</style></defs>
    <g>
        <path d="M79.609 140.667h-5.826v-5.81a2.913 2.913 0 0 0-2.913-2.905H59.217a2.912 2.912 0 0 0-2.913 2.905v5.81h-5.826v-5.81c0-4.805 3.92-8.714 8.739-8.714H70.87c4.819 0 8.739 3.909 8.739 8.714v5.81z" fill="#AF1B08" data-color="1"></path>
        <path d="M114.565 140.667h-5.826v-5.81a2.912 2.912 0 0 0-2.913-2.905H94.174a2.912 2.912 0 0 0-2.913 2.905v5.81h-5.826v-5.81c0-4.805 3.92-8.714 8.739-8.714h11.652c4.819 0 8.739 3.909 8.739 8.714v5.81z" fill="#AF1B08" data-color="1"></path>
        <path d="M149.522 140.667h-5.826v-5.81a2.912 2.912 0 0 0-2.913-2.905H129.13a2.912 2.912 0 0 0-2.913 2.905v5.81h-5.826v-5.81c0-4.805 3.92-8.714 8.739-8.714h11.652c4.819 0 8.739 3.909 8.739 8.714v5.81z" fill="#AF1B08" data-color="1"></path>
        <path d="M62.13 161h-5.826v-5.81a2.913 2.913 0 0 0-2.913-2.905H41.739a2.912 2.912 0 0 0-2.913 2.905V161H33v-5.81c0-4.805 3.92-8.714 8.739-8.714h11.652c4.819 0 8.739 3.909 8.739 8.714V161z" fill="#AF1B08" data-color="1"></path>
        <path d="M97.087 161h-5.826v-5.81a2.913 2.913 0 0 0-2.913-2.905H76.696a2.912 2.912 0 0 0-2.913 2.905V161h-5.826v-5.81c0-4.805 3.92-8.714 8.739-8.714h11.652c4.819 0 8.739 3.909 8.739 8.714V161z" fill="#AF1B08" data-color="1"></path>
        <path d="M132.043 161h-5.826v-5.81a2.912 2.912 0 0 0-2.913-2.905h-11.652a2.912 2.912 0 0 0-2.913 2.905V161h-5.826v-5.81c0-4.805 3.92-8.714 8.739-8.714h11.652c4.819 0 8.739 3.909 8.739 8.714V161z" fill="#AF1B08" data-color="1"></path>
        <path d="M167 161h-5.826v-5.81a2.912 2.912 0 0 0-2.913-2.905h-11.652a2.912 2.912 0 0 0-2.913 2.905V161h-5.826v-5.81c0-4.805 3.92-8.714 8.739-8.714h11.652c4.819 0 8.739 3.909 8.739 8.714V161z" fill="#AF1B08" data-color="1"></path>
        <path d="M161.174 117.429H38.826a2.91 2.91 0 0 1-2.913-2.905V41.905A2.91 2.91 0 0 1 38.826 39h122.348a2.908 2.908 0 0 1 2.913 2.905v72.619a2.908 2.908 0 0 1-2.913 2.905zm-119.435-5.81h116.522V44.81H41.739v66.809z" fill="#AF1B08" data-color="1"></path>
    </g>
</svg>