<svg preserveAspectRatio="xMidYMid meet" data-bbox="39 47.5 122 105" viewBox="39 47.5 122 105" height="200" width="200" xmlns="http://www.w3.org/2000/svg" data-type="color" role="presentation" aria-hidden="true" aria-label=""><defs><style>#comp-lwqklabl6__item1 svg [data-color="1"] {fill: #000000;}</style></defs>
    <g>
        <path d="M155.19 47.5v5.833h-11.619V47.5h-5.81V65H62.238V47.5h-5.81v5.833H44.81V47.5H39v105h5.81v-5.833h11.619v5.833h5.81V135h75.524v17.5h5.81v-5.833h11.619v5.833H161v-105h-5.81zm0 11.667v11.667h-11.619V59.167h11.619zm-11.619 52.5h11.619v11.667h-11.619v-11.667zm0-5.834V94.167h11.619v11.667h-11.619zm0-17.5V76.667h11.619v11.667h-11.619zm-87.142 0H44.81V76.667h11.619v11.666zm0 5.834v11.667H44.81V94.167h11.619zm0 17.5v11.667H44.81v-11.667h11.619zm0-52.5v11.667H44.81V59.167h11.619zM44.81 140.833v-11.667h11.619v11.667H44.81zm17.428-11.666V70.833h75.524v58.333H62.238zm81.333 11.666v-11.667h11.619v11.667h-11.619z" fill="#AF1B08" data-color="1"></path>
    </g>
</svg>