<svg preserveAspectRatio="xMidYMid meet" data-bbox="20 20 160 160" viewBox="20 20 160 160" height="200" width="200" xmlns="http://www.w3.org/2000/svg" data-type="color" role="presentation" aria-hidden="true" aria-label=""><defs><style>#comp-lwrqmily6__item1 svg [data-color="1"] {fill: #000000;}</style></defs>
    <g>
        <path d="m20 180 9.408-37.641L148.45 23.235c4.307-4.31 11.829-4.316 16.144-.002l12.07 12.081c4.448 4.453 4.448 11.701 0 16.155L57.622 170.593 20 180zm16.279-33.747-5.818 23.282 23.27-5.818L171.283 46.084a3.815 3.815 0 0 0 0-5.385l-12.07-12.079c-1.438-1.439-3.95-1.435-5.381 0L36.279 146.253z" fill="#E30613" data-color="1"></path>
        <path fill="#E30613" d="m132.934 61.67 5.382 5.384-87.587 87.526-5.381-5.385 87.586-87.526z" data-color="1"></path>
        <path fill="#E30613" d="m138.284 34.982 26.638 26.657-5.385 5.381L132.9 40.364l5.385-5.382z" data-color="1"></path>
        <path fill="#E30613" d="m126.868 46.406 26.638 26.657-5.385 5.381-26.638-26.656 5.385-5.382z" data-color="1"></path>
    </g>
</svg>