<svg preserveAspectRatio="xMidYMid meet" data-bbox="14.9 13.5 170.3 173" viewBox="14.9 13.5 170.3 173" height="200" width="200" xmlns="http://www.w3.org/2000/svg" data-type="color" role="presentation" aria-hidden="true" aria-label=""><defs><style>#comp-lwrqgetb6__item1 svg [data-color="1"] {fill: #000000;}</style></defs>
    <g>
        <path d="M183.7 129.5l-15.2-14.3 7.7-7.7c2.1-2.1 3.2-4.7 3.2-7.7s-1.1-5.6-3.2-7.7l-75.1-75.4c-2.1-2.1-4.7-3.2-7.7-3.2s-5.6 1.1-7.7 3.2L64.2 38.6c-4.3 4.3-4.3 11.1 0 15.4l75.1 75.2c2.1 2.1 4.7 3.2 7.7 3.2s5.6-1.1 7.7-3.2l9.4-9.4 12.8 12.2-17.5 16.3c-1.3.9-9.6 5.4-16.5 1.1-9.2-6-50.3-36.2-50.7-36.4-1.3-.9-3-.9-4.1.2L75.9 124l-2.8-3.4c-1.7-1.7-3.8-2.8-6.4-2.8-2.1 0-4.3.9-5.8 2.1l-43.2 39.8c-1.7 1.5-2.8 3.6-2.8 6s.6 4.5 2.1 6.2l11 11.8c1.7 1.7 3.8 2.8 6.4 2.8 2.1 0 4.3-.9 5.8-2.1l43.4-39.6c1.7-1.5 2.8-3.6 2.8-6s-.6-4.5-2.1-6.2l-3.6-4.1 10.1-9c8.6 6.4 40.8 29.8 49 35.1 3.4 2.1 6.8 3 10.1 3 7.3 0 13.3-3.9 13.5-4.1.2 0 .2-.2.4-.4l20.3-18.8c.6-.6 1.1-1.5 1.1-2.4-.4-.9-.6-1.7-1.5-2.4zm-33.6-4.9c-1.7 1.7-4.7 1.7-6.4 0l-75-75.1C67 47.8 67 45 68.7 43l21.6-21.8c.9-.9 1.9-1.3 3.2-1.3 1.3 0 2.4.4 3.2 1.3l75.1 75.2c.9.9 1.3 1.9 1.3 3.2 0 1.3-.4 2.4-1.3 3.2l-21.7 21.8zm-70.9 15.2l-43.4 39.6c-.9.9-2.4.6-3-.2l-10.9-11.8c-.4-.4-.6-1.1-.6-1.5 0-.4.2-1.1.6-1.5l43.4-39.6c.4-.4.9-.6 1.5-.6s1.1.2 1.5.6l10.9 11.8c.4.4.6.9.6 1.5 0 .9-.2 1.3-.6 1.7z" fill="#93278f" data-color="1"></path>
    </g>
</svg>