<svg preserveAspectRatio="xMidYMid meet" data-bbox="53.5 37.5 93 125" viewBox="53.5 37.5 93 125" height="200" width="200" xmlns="http://www.w3.org/2000/svg" data-type="color" role="presentation" aria-hidden="true" aria-label=""><defs><style>#comp-lwrpv6xx6__item1 svg [data-color="1"] {fill: #000000;}</style></defs>
    <g>
        <path d="M100 146.875c-18.519 0-33.583-15.186-33.583-33.854S81.481 79.167 100 79.167c18.517 0 33.583 15.186 33.583 33.854S118.517 146.875 100 146.875zm0-62.5c-15.669 0-28.417 12.85-28.417 28.646S84.331 141.667 100 141.667s28.417-12.85 28.417-28.646S115.669 84.375 100 84.375z" fill="#583B6B" data-color="1"></path>
        <path d="M100 126.042c-7.122 0-12.915-5.842-12.915-13.021s5.794-13.02 12.915-13.02c7.122.001 12.917 5.843 12.917 13.021 0 7.179-5.795 13.02-12.917 13.02zm0-20.832c-4.272 0-7.749 3.504-7.749 7.811 0 4.308 3.476 7.812 7.749 7.812 4.274 0 7.75-3.504 7.75-7.811s-3.476-7.811-7.75-7.812z" fill="#583B6B" data-color="1"></path>
        <path d="M79.333 73.958c-7.122 0-12.917-5.842-12.917-13.022 0-7.179 5.795-13.02 12.917-13.02 7.123 0 12.918 5.842 12.918 13.022 0 7.18-5.795 13.02-12.918 13.02zm0-20.833c-4.274 0-7.75 3.504-7.75 7.811 0 4.308 3.476 7.814 7.75 7.814s7.751-3.504 7.751-7.811c.001-4.308-3.477-7.814-7.751-7.814z" fill="#583B6B" data-color="1"></path>
        <path d="M146.5 159.896h-93V37.5h93v122.396zm-87.833-5.208h82.667V42.708H58.667v111.98z" fill="#583B6B" data-color="1"></path>
        <path fill="#583B6B" d="M66.417 157.292v5.208H61.25v-5.208h5.167z" data-color="1"></path>
        <path fill="#583B6B" d="M138.75 157.292v5.208h-5.167v-5.208h5.167z" data-color="1"></path>
    </g>
</svg>